<?xml version="1.0" encoding="UTF-8" standalone="no"?>
<svg
   xmlns:dc="http://purl.org/dc/elements/1.1/"
   xmlns:cc="http://creativecommons.org/ns#"
   xmlns:rdf="http://www.w3.org/1999/02/22-rdf-syntax-ns#"
   xmlns:svg="http://www.w3.org/2000/svg"
   xmlns="http://www.w3.org/2000/svg"
   xmlns:sodipodi="http://sodipodi.sourceforge.net/DTD/sodipodi-0.dtd"
   xmlns:inkscape="http://www.inkscape.org/namespaces/inkscape"
   id="Layer_1"
   data-name="Layer 1"
   viewBox="0 0 962.57 109.64"
   version="1.1"
   sodipodi:docname="logo_horizontal.svg"
   inkscape:version="1.0.2 (e86c870879, 2021-01-15)">
  <metadata
     id="metadata23">
    <rdf:RDF>
      <cc:Work
         rdf:about="">
        <dc:format>image/svg+xml</dc:format>
        <dc:type
           rdf:resource="http://purl.org/dc/dcmitype/StillImage" />
      </cc:Work>
    </rdf:RDF>
  </metadata>
  <sodipodi:namedview
     pagecolor="#ffffff"
     bordercolor="#666666"
     borderopacity="1"
     objecttolerance="10"
     gridtolerance="10"
     guidetolerance="10"
     inkscape:pageopacity="0"
     inkscape:pageshadow="2"
     inkscape:window-width="3440"
     inkscape:window-height="1370"
     id="namedview21"
     showgrid="false"
     inkscape:zoom="1.4142136"
     inkscape:cx="490.05006"
     inkscape:cy="191.85234"
     inkscape:window-x="1920"
     inkscape:window-y="1086"
     inkscape:window-maximized="1"
     inkscape:current-layer="Layer_1"
     inkscape:document-rotation="0" />
  <defs
     id="defs4">
    <rect
       x="244.62906"
       y="8.3674109"
       width="710.01685"
       height="91.443464"
       id="rect27" />
    <style
       id="style2">.cls-2{fill:#1a914e}</style>
  </defs>
  <path
     d="M66.71 108.83c-2.53 0-5.14-.14-7.85-.41l-.72-.09C26.22 104 2.31 77.76 0 44.56l42.9-3c.73 10.61 7.42 22.12 20.7 24.11C76.83 66.91 83 60.45 96.81 42c11.41-15.2 25.61-34.1 50.68-40.19A66.51 66.51 0 01207 17a68.49 68.49 0 0123 59l-42.72-4.88a25.44 25.44 0 00-8.66-21.88 23.17 23.17 0 00-21-5.59c-9.6 2.33-16.3 10.72-26.44 24.22-13.13 17.45-30.8 40.95-64.47 40.96z"
     fill="#c1ebf7"
     id="path6" />
  <text
     xml:space="preserve"
     id="text25"
     style="font-style:normal;font-variant:normal;font-weight:bold;font-stretch:normal;font-size:74.6667px;line-height:1.25;font-family:'Bitstream Vera Sans';-inkscape-font-specification:'Bitstream Vera Sans, Bold';font-variant-ligatures:normal;font-variant-caps:normal;font-variant-numeric:normal;font-variant-east-asian:normal;letter-spacing:0px;word-spacing:0px;white-space:pre;shape-inside:url(#rect27);fill:#008000;fill-opacity:1;stroke:none;"
     transform="matrix(1.0266746,0,0,1.4166261,-0.63255705,-22.392626)"><tspan
       x="244.62891"
       y="74.429719"><tspan
         style="font-style:normal;font-variant:normal;font-weight:bold;font-stretch:normal;font-size:74.6667px;font-family:'Bitstream Vera Sans';-inkscape-font-specification:'Bitstream Vera Sans, Bold';font-variant-ligatures:normal;font-variant-caps:normal;font-variant-numeric:normal;font-variant-east-asian:normal;fill:#008000">Street Design AI</tspan></tspan></text>
</svg>
