<?xml version="1.0" encoding="UTF-8" standalone="no"?>
<svg
   xmlns:dc="http://purl.org/dc/elements/1.1/"
   xmlns:cc="http://creativecommons.org/ns#"
   xmlns:rdf="http://www.w3.org/1999/02/22-rdf-syntax-ns#"
   xmlns:svg="http://www.w3.org/2000/svg"
   xmlns="http://www.w3.org/2000/svg"
   xmlns:sodipodi="http://sodipodi.sourceforge.net/DTD/sodipodi-0.dtd"
   xmlns:inkscape="http://www.inkscape.org/namespaces/inkscape"
   id="Layer_1"
   data-name="Layer 1"
   viewBox="0 0 656.61 264.27"
   version="1.1"
   sodipodi:docname="logo_main.svg"
   inkscape:version="1.0.2 (e86c870879, 2021-01-15)">
  <metadata
     id="metadata21">
    <rdf:RDF>
      <cc:Work
         rdf:about="">
        <dc:format>image/svg+xml</dc:format>
        <dc:type
           rdf:resource="http://purl.org/dc/dcmitype/StillImage" />
      </cc:Work>
    </rdf:RDF>
  </metadata>
  <sodipodi:namedview
     pagecolor="#ffffff"
     bordercolor="#666666"
     borderopacity="1"
     objecttolerance="10"
     gridtolerance="10"
     guidetolerance="10"
     inkscape:pageopacity="0"
     inkscape:pageshadow="2"
     inkscape:window-width="3440"
     inkscape:window-height="1370"
     id="namedview19"
     showgrid="false"
     inkscape:zoom="1.7300986"
     inkscape:cx="328.30499"
     inkscape:cy="132.13499"
     inkscape:window-x="1920"
     inkscape:window-y="1086"
     inkscape:window-maximized="1"
     inkscape:current-layer="Layer_1" />
  <defs
     id="defs4">
    <rect
       x="10.036289"
       y="148.11358"
       width="636.50326"
       height="106.46295"
       id="rect25" />
    <style
       id="style2">.cls-2{fill:#1a914e}</style>
  </defs>
  <path
     d="M279.34 108.83c-2.53 0-5.14-.14-7.85-.41l-.72-.09c-31.92-4.35-55.83-30.57-58.14-63.77l42.89-3c.74 10.61 7.43 22.12 20.71 24.11 13.23 1.23 19.34-5.23 33.21-23.68 11.41-15.2 25.61-34.1 50.68-40.19A66.52 66.52 0 01419.67 17a68.49 68.49 0 0122.92 59l-42.72-4.88a25.44 25.44 0 00-8.66-21.88c-6-5.32-13.66-7.36-20.95-5.59-9.6 2.33-16.3 10.72-26.44 24.22-13.14 17.45-30.82 40.95-64.48 40.96z"
     fill="#fff"
     id="path6" />
  <text
     xml:space="preserve"
     id="text23"
     style="font-style:normal;font-variant:normal;font-weight:bold;font-stretch:normal;font-size:64px;line-height:1.25;font-family:'Bitstream Vera Sans';-inkscape-font-specification:'Bitstream Vera Sans, Bold';font-variant-ligatures:normal;font-variant-caps:normal;font-variant-numeric:normal;font-variant-east-asian:normal;letter-spacing:0px;word-spacing:0px;white-space:pre;shape-inside:url(#rect25);fill:#008000;fill-opacity:1;stroke:none;"
     transform="matrix(1.080599,0,0,1.5639203,-1.1792326,-88.035452)"><tspan
       x="10.037109"
       y="204.73828"><tspan
         style="font-style:normal;font-variant:normal;font-weight:bold;font-stretch:normal;font-size:64px;font-family:'Bitstream Vera Sans';-inkscape-font-specification:'Bitstream Vera Sans, Bold';font-variant-ligatures:normal;font-variant-caps:normal;font-variant-numeric:normal;font-variant-east-asian:normal;fill:#008000">Street Design AI</tspan></tspan></text>
</svg>
